<svg width="490" height="140" viewBox="0 0 490 140" fill="none" xmlns="http://www.w3.org/2000/svg">
<g clip-path="url(#clip0_3_6)">
<rect x="-2" y="74" width="225" height="3" fill="#2885FF"/>
<rect x="223.799" y="74" width="68" height="3" transform="rotate(68.9024 223.799 74)" fill="#2885FF"/>
<rect x="287.922" y="13.9247" width="130" height="3" transform="rotate(107.952 287.922 13.9247)" fill="#2885FF"/>
<rect x="287.947" y="14" width="115" height="3" transform="rotate(79.1868 287.947 14)" fill="#2885FF"/>
<rect x="331.918" y="44.7104" width="85" height="3" transform="rotate(105.117 331.918 44.7104)" fill="#2885FF"/>
<rect x="332.154" y="44.8518" width="78" height="3" transform="rotate(65.3296 332.154 44.8518)" fill="#2885FF"/>
<rect x="383.129" y="42.7638" width="75" height="3" transform="rotate(103.953 383.129 42.7638)" fill="#2885FF"/>
<rect x="383.561" y="42.9378" width="32" height="3" transform="rotate(76.8495 383.561 42.9378)" fill="#2885FF"/>
<rect x="388" y="74" width="70" height="3" fill="#2885FF"/>
<line x1="459.737" y1="78.4659" x2="454.616" y2="72.3201" stroke="#2885FF"/>
<line x1="461.148" y1="76.9108" x2="453.631" y2="74.1746" stroke="#2885FF"/>
<line x1="461.587" y1="74.8707" x2="453.708" y2="76.2599" stroke="#2885FF"/>
<line x1="455.606" y1="78.8157" x2="460.749" y2="72.6873" stroke="#2885FF"/>
<line x1="457.714" y1="80.0141" x2="458.411" y2="72.0445" stroke="#2885FF"/>
<line x1="459.459" y1="79.0027" x2="456.723" y2="71.4851" stroke="#2885FF"/>
<circle cx="457.5" cy="75.5" r="2" fill="#2885FF" stroke="black"/>
<g filter="url(#filter0_d_3_6)">
<path d="M101.32 89.88C101.32 92.3333 100.947 94.5733 100.2 96.6C99.5067 98.5733 98.2267 100.28 96.36 101.72C94.5467 103.107 92.0133 104.2 88.76 105C85.56 105.8 81.48 106.2 76.52 106.2C71.56 106.2 67.4533 105.8 64.2 105C60.9467 104.2 58.3867 103.107 56.52 101.72C54.7067 100.28 53.4267 98.5733 52.68 96.6C51.9867 94.5733 51.64 92.3333 51.64 89.88V62.6C51.64 60.1467 51.9867 57.9333 52.68 55.96C53.4267 53.9333 54.7067 52.2 56.52 50.76C58.3867 49.32 60.9467 48.2 64.2 47.4C67.4533 46.6 71.56 46.2 76.52 46.2C81.48 46.2 85.56 46.6 88.76 47.4C92.0133 48.2 94.5467 49.32 96.36 50.76C98.2267 52.2 99.5067 53.9333 100.2 55.96C100.947 57.9333 101.32 60.1467 101.32 62.6V89.88ZM69.8 87C69.8 88.0667 70.2 88.9733 71 89.72C71.8 90.4133 73.64 90.76 76.52 90.76C79.4 90.76 81.24 90.4133 82.04 89.72C82.84 88.9733 83.24 88.0667 83.24 87V65.48C83.24 64.4667 82.84 63.6133 82.04 62.92C81.24 62.1733 79.4 61.8 76.52 61.8C73.64 61.8 71.8 62.1733 71 62.92C70.2 63.6133 69.8 64.4667 69.8 65.48V87ZM126.784 105H114.384C113.371 105 112.624 104.787 112.144 104.36C111.718 103.88 111.504 103.133 111.504 102.12V50.28C111.504 49.2667 111.718 48.5467 112.144 48.12C112.624 47.64 113.371 47.4 114.384 47.4H138.864C146.118 47.4 151.078 48.84 153.744 51.72C156.411 54.6 157.744 58.36 157.744 63V73.24C157.744 77.88 156.411 81.64 153.744 84.52C151.078 87.4 146.118 88.84 138.864 88.84H129.664V102.12C129.664 103.133 129.424 103.88 128.944 104.36C128.518 104.787 127.798 105 126.784 105ZM129.504 62.36V74.44H136.704C138.251 74.44 139.264 74.04 139.744 73.24C140.224 72.44 140.464 71.5333 140.464 70.52V66.28C140.464 65.2667 140.224 64.36 139.744 63.56C139.264 62.76 138.251 62.36 136.704 62.36H129.504ZM193.236 105H180.276C179.262 105 178.516 104.787 178.036 104.36C177.609 103.88 177.396 103.133 177.396 102.12V62.84H165.636C164.622 62.84 163.876 62.6267 163.396 62.2C162.969 61.72 162.756 60.9733 162.756 59.96V50.28C162.756 49.2667 162.969 48.5467 163.396 48.12C163.876 47.64 164.622 47.4 165.636 47.4H207.876C208.889 47.4 209.609 47.64 210.036 48.12C210.516 48.5467 210.756 49.2667 210.756 50.28V59.96C210.756 60.9733 210.516 61.72 210.036 62.2C209.609 62.6267 208.889 62.84 207.876 62.84H196.116V102.12C196.116 103.133 195.876 103.88 195.396 104.36C194.969 104.787 194.249 105 193.236 105ZM220.136 105C219.122 105 218.376 104.787 217.896 104.36C217.469 103.88 217.256 103.133 217.256 102.12V92.6C217.256 91.5867 217.469 90.8667 217.896 90.44C218.376 89.96 219.122 89.72 220.136 89.72H228.056V62.84H220.136C219.122 62.84 218.376 62.6267 217.896 62.2C217.469 61.72 217.256 60.9733 217.256 59.96V50.28C217.256 49.2667 217.469 48.5467 217.896 48.12C218.376 47.64 219.122 47.4 220.136 47.4H254.216C255.229 47.4 255.949 47.64 256.376 48.12C256.856 48.5467 257.096 49.2667 257.096 50.28V59.96C257.096 60.9733 256.856 61.72 256.376 62.2C255.949 62.6267 255.229 62.84 254.216 62.84H246.456V89.72H254.216C255.229 89.72 255.949 89.96 256.376 90.44C256.856 90.8667 257.096 91.5867 257.096 92.6V102.12C257.096 103.133 256.856 103.88 256.376 104.36C255.949 104.787 255.229 105 254.216 105H220.136ZM281.773 105H269.853C268.84 105 268.093 104.787 267.613 104.36C267.186 103.88 266.973 103.133 266.973 102.12V50.28C266.973 49.2667 267.186 48.5467 267.613 48.12C268.093 47.64 268.84 47.4 269.853 47.4H282.733C283.586 47.4 284.28 47.5867 284.813 47.96C285.4 48.3333 285.933 48.9467 286.413 49.8L293.613 62.84C293.88 63.32 294.093 63.6667 294.253 63.88C294.466 64.0933 294.733 64.2 295.053 64.2H295.773C296.093 64.2 296.333 64.0933 296.493 63.88C296.706 63.6667 296.946 63.32 297.213 62.84L304.333 49.8C304.813 48.9467 305.32 48.3333 305.853 47.96C306.44 47.5867 307.16 47.4 308.013 47.4H320.973C321.986 47.4 322.706 47.64 323.133 48.12C323.613 48.5467 323.853 49.2667 323.853 50.28V102.12C323.853 103.133 323.613 103.88 323.133 104.36C322.706 104.787 321.986 105 320.973 105H308.653C307.64 105 306.893 104.787 306.413 104.36C305.986 103.88 305.773 103.133 305.773 102.12V73.96L301.053 82.68C300.573 83.5867 299.986 84.2533 299.293 84.68C298.653 85.0533 297.826 85.24 296.813 85.24H293.613C292.6 85.24 291.746 85.0533 291.053 84.68C290.413 84.2533 289.853 83.5867 289.373 82.68L284.653 73.96V102.12C284.653 103.133 284.413 103.88 283.933 104.36C283.506 104.787 282.786 105 281.773 105ZM355.744 64.2L351.984 76.36H364.544L360.784 64.2C360.57 63.72 360.33 63.3733 360.064 63.16C359.85 62.9467 359.584 62.84 359.264 62.84H357.264C356.944 62.84 356.65 62.9467 356.384 63.16C356.17 63.3733 355.957 63.72 355.744 64.2ZM351.184 102.12C351.184 103.133 350.944 103.88 350.464 104.36C350.037 104.787 349.317 105 348.304 105H336.544C335.53 105 334.784 104.787 334.304 104.36C333.877 103.88 333.664 103.133 333.664 102.12V81C333.664 79.4 333.904 77.56 334.384 75.48C334.917 73.4 335.717 70.9733 336.784 68.2L343.744 50.04C344.064 49.1333 344.544 48.4667 345.184 48.04C345.877 47.6133 346.757 47.4 347.824 47.4H369.344C370.357 47.4 371.184 47.6133 371.824 48.04C372.517 48.4667 373.024 49.1333 373.344 50.04L380.304 68.2C381.37 70.9733 382.144 73.4 382.624 75.48C383.157 77.56 383.424 79.4 383.424 81V102.12C383.424 103.133 383.184 103.88 382.704 104.36C382.277 104.787 381.557 105 380.544 105H368.464C367.397 105 366.597 104.787 366.064 104.36C365.584 103.88 365.344 103.133 365.344 102.12V90.92H351.184V102.12ZM436.901 105H396.181C395.168 105 394.421 104.787 393.941 104.36C393.515 103.88 393.301 103.133 393.301 102.12V50.28C393.301 49.2667 393.515 48.5467 393.941 48.12C394.421 47.64 395.168 47.4 396.181 47.4H408.581C409.595 47.4 410.315 47.64 410.741 48.12C411.221 48.5467 411.461 49.2667 411.461 50.28V89.88H422.421V76.92C422.421 75.9067 422.635 75.1867 423.061 74.76C423.541 74.28 424.288 74.04 425.301 74.04H436.901C437.915 74.04 438.635 74.28 439.061 74.76C439.541 75.1867 439.781 75.9067 439.781 76.92V102.12C439.781 103.133 439.541 103.88 439.061 104.36C438.635 104.787 437.915 105 436.901 105Z" fill="#636778"/>
</g>
<mask id="path-18-outside-1_3_6" maskUnits="userSpaceOnUse" x="40" y="40" width="391" height="63" fill="black">
<rect fill="white" x="40" y="40" width="391" height="63"/>
<path d="M91.32 84.88C91.32 87.3333 90.9467 89.5733 90.2 91.6C89.5067 93.5733 88.2267 95.28 86.36 96.72C84.5467 98.1067 82.0133 99.2 78.76 100C75.56 100.8 71.48 101.2 66.52 101.2C61.56 101.2 57.4533 100.8 54.2 100C50.9467 99.2 48.3867 98.1067 46.52 96.72C44.7067 95.28 43.4267 93.5733 42.68 91.6C41.9867 89.5733 41.64 87.3333 41.64 84.88V57.6C41.64 55.1467 41.9867 52.9333 42.68 50.96C43.4267 48.9333 44.7067 47.2 46.52 45.76C48.3867 44.32 50.9467 43.2 54.2 42.4C57.4533 41.6 61.56 41.2 66.52 41.2C71.48 41.2 75.56 41.6 78.76 42.4C82.0133 43.2 84.5467 44.32 86.36 45.76C88.2267 47.2 89.5067 48.9333 90.2 50.96C90.9467 52.9333 91.32 55.1467 91.32 57.6V84.88ZM59.8 82C59.8 83.0667 60.2 83.9733 61 84.72C61.8 85.4133 63.64 85.76 66.52 85.76C69.4 85.76 71.24 85.4133 72.04 84.72C72.84 83.9733 73.24 83.0667 73.24 82V60.48C73.24 59.4667 72.84 58.6133 72.04 57.92C71.24 57.1733 69.4 56.8 66.52 56.8C63.64 56.8 61.8 57.1733 61 57.92C60.2 58.6133 59.8 59.4667 59.8 60.48V82ZM116.784 100H104.384C103.371 100 102.624 99.7867 102.144 99.36C101.718 98.88 101.504 98.1333 101.504 97.12V45.28C101.504 44.2667 101.718 43.5467 102.144 43.12C102.624 42.64 103.371 42.4 104.384 42.4H128.864C136.118 42.4 141.078 43.84 143.744 46.72C146.411 49.6 147.744 53.36 147.744 58V68.24C147.744 72.88 146.411 76.64 143.744 79.52C141.078 82.4 136.118 83.84 128.864 83.84H119.664V97.12C119.664 98.1333 119.424 98.88 118.944 99.36C118.518 99.7867 117.798 100 116.784 100ZM119.504 57.36V69.44H126.704C128.251 69.44 129.264 69.04 129.744 68.24C130.224 67.44 130.464 66.5333 130.464 65.52V61.28C130.464 60.2667 130.224 59.36 129.744 58.56C129.264 57.76 128.251 57.36 126.704 57.36H119.504ZM183.236 100H170.276C169.262 100 168.516 99.7867 168.036 99.36C167.609 98.88 167.396 98.1333 167.396 97.12V57.84H155.636C154.622 57.84 153.876 57.6267 153.396 57.2C152.969 56.72 152.756 55.9733 152.756 54.96V45.28C152.756 44.2667 152.969 43.5467 153.396 43.12C153.876 42.64 154.622 42.4 155.636 42.4H197.876C198.889 42.4 199.609 42.64 200.036 43.12C200.516 43.5467 200.756 44.2667 200.756 45.28V54.96C200.756 55.9733 200.516 56.72 200.036 57.2C199.609 57.6267 198.889 57.84 197.876 57.84H186.116V97.12C186.116 98.1333 185.876 98.88 185.396 99.36C184.969 99.7867 184.249 100 183.236 100ZM210.136 100C209.122 100 208.376 99.7867 207.896 99.36C207.469 98.88 207.256 98.1333 207.256 97.12V87.6C207.256 86.5867 207.469 85.8667 207.896 85.44C208.376 84.96 209.122 84.72 210.136 84.72H218.056V57.84H210.136C209.122 57.84 208.376 57.6267 207.896 57.2C207.469 56.72 207.256 55.9733 207.256 54.96V45.28C207.256 44.2667 207.469 43.5467 207.896 43.12C208.376 42.64 209.122 42.4 210.136 42.4H244.216C245.229 42.4 245.949 42.64 246.376 43.12C246.856 43.5467 247.096 44.2667 247.096 45.28V54.96C247.096 55.9733 246.856 56.72 246.376 57.2C245.949 57.6267 245.229 57.84 244.216 57.84H236.456V84.72H244.216C245.229 84.72 245.949 84.96 246.376 85.44C246.856 85.8667 247.096 86.5867 247.096 87.6V97.12C247.096 98.1333 246.856 98.88 246.376 99.36C245.949 99.7867 245.229 100 244.216 100H210.136ZM271.773 100H259.853C258.84 100 258.093 99.7867 257.613 99.36C257.186 98.88 256.973 98.1333 256.973 97.12V45.28C256.973 44.2667 257.186 43.5467 257.613 43.12C258.093 42.64 258.84 42.4 259.853 42.4H272.733C273.586 42.4 274.28 42.5867 274.813 42.96C275.4 43.3333 275.933 43.9467 276.413 44.8L283.613 57.84C283.88 58.32 284.093 58.6667 284.253 58.88C284.466 59.0933 284.733 59.2 285.053 59.2H285.773C286.093 59.2 286.333 59.0933 286.493 58.88C286.706 58.6667 286.946 58.32 287.213 57.84L294.333 44.8C294.813 43.9467 295.32 43.3333 295.853 42.96C296.44 42.5867 297.16 42.4 298.013 42.4H310.973C311.986 42.4 312.706 42.64 313.133 43.12C313.613 43.5467 313.853 44.2667 313.853 45.28V97.12C313.853 98.1333 313.613 98.88 313.133 99.36C312.706 99.7867 311.986 100 310.973 100H298.653C297.64 100 296.893 99.7867 296.413 99.36C295.986 98.88 295.773 98.1333 295.773 97.12V68.96L291.053 77.68C290.573 78.5867 289.986 79.2533 289.293 79.68C288.653 80.0533 287.826 80.24 286.813 80.24H283.613C282.6 80.24 281.746 80.0533 281.053 79.68C280.413 79.2533 279.853 78.5867 279.373 77.68L274.653 68.96V97.12C274.653 98.1333 274.413 98.88 273.933 99.36C273.506 99.7867 272.786 100 271.773 100ZM345.744 59.2L341.984 71.36H354.544L350.784 59.2C350.57 58.72 350.33 58.3733 350.064 58.16C349.85 57.9467 349.584 57.84 349.264 57.84H347.264C346.944 57.84 346.65 57.9467 346.384 58.16C346.17 58.3733 345.957 58.72 345.744 59.2ZM341.184 97.12C341.184 98.1333 340.944 98.88 340.464 99.36C340.037 99.7867 339.317 100 338.304 100H326.544C325.53 100 324.784 99.7867 324.304 99.36C323.877 98.88 323.664 98.1333 323.664 97.12V76C323.664 74.4 323.904 72.56 324.384 70.48C324.917 68.4 325.717 65.9733 326.784 63.2L333.744 45.04C334.064 44.1333 334.544 43.4667 335.184 43.04C335.877 42.6133 336.757 42.4 337.824 42.4H359.344C360.357 42.4 361.184 42.6133 361.824 43.04C362.517 43.4667 363.024 44.1333 363.344 45.04L370.304 63.2C371.37 65.9733 372.144 68.4 372.624 70.48C373.157 72.56 373.424 74.4 373.424 76V97.12C373.424 98.1333 373.184 98.88 372.704 99.36C372.277 99.7867 371.557 100 370.544 100H358.464C357.397 100 356.597 99.7867 356.064 99.36C355.584 98.88 355.344 98.1333 355.344 97.12V85.92H341.184V97.12ZM426.901 100H386.181C385.168 100 384.421 99.7867 383.941 99.36C383.515 98.88 383.301 98.1333 383.301 97.12V45.28C383.301 44.2667 383.515 43.5467 383.941 43.12C384.421 42.64 385.168 42.4 386.181 42.4H398.581C399.595 42.4 400.315 42.64 400.741 43.12C401.221 43.5467 401.461 44.2667 401.461 45.28V84.88H412.421V71.92C412.421 70.9067 412.635 70.1867 413.061 69.76C413.541 69.28 414.288 69.04 415.301 69.04H426.901C427.915 69.04 428.635 69.28 429.061 69.76C429.541 70.1867 429.781 70.9067 429.781 71.92V97.12C429.781 98.1333 429.541 98.88 429.061 99.36C428.635 99.7867 427.915 100 426.901 100Z"/>
</mask>
<path d="M91.32 84.88C91.32 87.3333 90.9467 89.5733 90.2 91.6C89.5067 93.5733 88.2267 95.28 86.36 96.72C84.5467 98.1067 82.0133 99.2 78.76 100C75.56 100.8 71.48 101.2 66.52 101.2C61.56 101.2 57.4533 100.8 54.2 100C50.9467 99.2 48.3867 98.1067 46.52 96.72C44.7067 95.28 43.4267 93.5733 42.68 91.6C41.9867 89.5733 41.64 87.3333 41.64 84.88V57.6C41.64 55.1467 41.9867 52.9333 42.68 50.96C43.4267 48.9333 44.7067 47.2 46.52 45.76C48.3867 44.32 50.9467 43.2 54.2 42.4C57.4533 41.6 61.56 41.2 66.52 41.2C71.48 41.2 75.56 41.6 78.76 42.4C82.0133 43.2 84.5467 44.32 86.36 45.76C88.2267 47.2 89.5067 48.9333 90.2 50.96C90.9467 52.9333 91.32 55.1467 91.32 57.6V84.88ZM59.8 82C59.8 83.0667 60.2 83.9733 61 84.72C61.8 85.4133 63.64 85.76 66.52 85.76C69.4 85.76 71.24 85.4133 72.04 84.72C72.84 83.9733 73.24 83.0667 73.24 82V60.48C73.24 59.4667 72.84 58.6133 72.04 57.92C71.24 57.1733 69.4 56.8 66.52 56.8C63.64 56.8 61.8 57.1733 61 57.92C60.2 58.6133 59.8 59.4667 59.8 60.48V82ZM116.784 100H104.384C103.371 100 102.624 99.7867 102.144 99.36C101.718 98.88 101.504 98.1333 101.504 97.12V45.28C101.504 44.2667 101.718 43.5467 102.144 43.12C102.624 42.64 103.371 42.4 104.384 42.4H128.864C136.118 42.4 141.078 43.84 143.744 46.72C146.411 49.6 147.744 53.36 147.744 58V68.24C147.744 72.88 146.411 76.64 143.744 79.52C141.078 82.4 136.118 83.84 128.864 83.84H119.664V97.12C119.664 98.1333 119.424 98.88 118.944 99.36C118.518 99.7867 117.798 100 116.784 100ZM119.504 57.36V69.44H126.704C128.251 69.44 129.264 69.04 129.744 68.24C130.224 67.44 130.464 66.5333 130.464 65.52V61.28C130.464 60.2667 130.224 59.36 129.744 58.56C129.264 57.76 128.251 57.36 126.704 57.36H119.504ZM183.236 100H170.276C169.262 100 168.516 99.7867 168.036 99.36C167.609 98.88 167.396 98.1333 167.396 97.12V57.84H155.636C154.622 57.84 153.876 57.6267 153.396 57.2C152.969 56.72 152.756 55.9733 152.756 54.96V45.28C152.756 44.2667 152.969 43.5467 153.396 43.12C153.876 42.64 154.622 42.4 155.636 42.4H197.876C198.889 42.4 199.609 42.64 200.036 43.12C200.516 43.5467 200.756 44.2667 200.756 45.28V54.96C200.756 55.9733 200.516 56.72 200.036 57.2C199.609 57.6267 198.889 57.84 197.876 57.84H186.116V97.12C186.116 98.1333 185.876 98.88 185.396 99.36C184.969 99.7867 184.249 100 183.236 100ZM210.136 100C209.122 100 208.376 99.7867 207.896 99.36C207.469 98.88 207.256 98.1333 207.256 97.12V87.6C207.256 86.5867 207.469 85.8667 207.896 85.44C208.376 84.96 209.122 84.72 210.136 84.72H218.056V57.84H210.136C209.122 57.84 208.376 57.6267 207.896 57.2C207.469 56.72 207.256 55.9733 207.256 54.96V45.28C207.256 44.2667 207.469 43.5467 207.896 43.12C208.376 42.64 209.122 42.4 210.136 42.4H244.216C245.229 42.4 245.949 42.64 246.376 43.12C246.856 43.5467 247.096 44.2667 247.096 45.28V54.96C247.096 55.9733 246.856 56.72 246.376 57.2C245.949 57.6267 245.229 57.84 244.216 57.84H236.456V84.72H244.216C245.229 84.72 245.949 84.96 246.376 85.44C246.856 85.8667 247.096 86.5867 247.096 87.6V97.12C247.096 98.1333 246.856 98.88 246.376 99.36C245.949 99.7867 245.229 100 244.216 100H210.136ZM271.773 100H259.853C258.84 100 258.093 99.7867 257.613 99.36C257.186 98.88 256.973 98.1333 256.973 97.12V45.28C256.973 44.2667 257.186 43.5467 257.613 43.12C258.093 42.64 258.84 42.4 259.853 42.4H272.733C273.586 42.4 274.28 42.5867 274.813 42.96C275.4 43.3333 275.933 43.9467 276.413 44.8L283.613 57.84C283.88 58.32 284.093 58.6667 284.253 58.88C284.466 59.0933 284.733 59.2 285.053 59.2H285.773C286.093 59.2 286.333 59.0933 286.493 58.88C286.706 58.6667 286.946 58.32 287.213 57.84L294.333 44.8C294.813 43.9467 295.32 43.3333 295.853 42.96C296.44 42.5867 297.16 42.4 298.013 42.4H310.973C311.986 42.4 312.706 42.64 313.133 43.12C313.613 43.5467 313.853 44.2667 313.853 45.28V97.12C313.853 98.1333 313.613 98.88 313.133 99.36C312.706 99.7867 311.986 100 310.973 100H298.653C297.64 100 296.893 99.7867 296.413 99.36C295.986 98.88 295.773 98.1333 295.773 97.12V68.96L291.053 77.68C290.573 78.5867 289.986 79.2533 289.293 79.68C288.653 80.0533 287.826 80.24 286.813 80.24H283.613C282.6 80.24 281.746 80.0533 281.053 79.68C280.413 79.2533 279.853 78.5867 279.373 77.68L274.653 68.96V97.12C274.653 98.1333 274.413 98.88 273.933 99.36C273.506 99.7867 272.786 100 271.773 100ZM345.744 59.2L341.984 71.36H354.544L350.784 59.2C350.57 58.72 350.33 58.3733 350.064 58.16C349.85 57.9467 349.584 57.84 349.264 57.84H347.264C346.944 57.84 346.65 57.9467 346.384 58.16C346.17 58.3733 345.957 58.72 345.744 59.2ZM341.184 97.12C341.184 98.1333 340.944 98.88 340.464 99.36C340.037 99.7867 339.317 100 338.304 100H326.544C325.53 100 324.784 99.7867 324.304 99.36C323.877 98.88 323.664 98.1333 323.664 97.12V76C323.664 74.4 323.904 72.56 324.384 70.48C324.917 68.4 325.717 65.9733 326.784 63.2L333.744 45.04C334.064 44.1333 334.544 43.4667 335.184 43.04C335.877 42.6133 336.757 42.4 337.824 42.4H359.344C360.357 42.4 361.184 42.6133 361.824 43.04C362.517 43.4667 363.024 44.1333 363.344 45.04L370.304 63.2C371.37 65.9733 372.144 68.4 372.624 70.48C373.157 72.56 373.424 74.4 373.424 76V97.12C373.424 98.1333 373.184 98.88 372.704 99.36C372.277 99.7867 371.557 100 370.544 100H358.464C357.397 100 356.597 99.7867 356.064 99.36C355.584 98.88 355.344 98.1333 355.344 97.12V85.92H341.184V97.12ZM426.901 100H386.181C385.168 100 384.421 99.7867 383.941 99.36C383.515 98.88 383.301 98.1333 383.301 97.12V45.28C383.301 44.2667 383.515 43.5467 383.941 43.12C384.421 42.64 385.168 42.4 386.181 42.4H398.581C399.595 42.4 400.315 42.64 400.741 43.12C401.221 43.5467 401.461 44.2667 401.461 45.28V84.88H412.421V71.92C412.421 70.9067 412.635 70.1867 413.061 69.76C413.541 69.28 414.288 69.04 415.301 69.04H426.901C427.915 69.04 428.635 69.28 429.061 69.76C429.541 70.1867 429.781 70.9067 429.781 71.92V97.12C429.781 98.1333 429.541 98.88 429.061 99.36C428.635 99.7867 427.915 100 426.901 100Z" fill="white"/>
<path d="M90.2 91.6L89.2617 91.2543L89.259 91.2614L89.2565 91.2685L90.2 91.6ZM86.36 96.72L86.9675 97.5144L86.9708 97.5118L86.36 96.72ZM78.76 100L78.5212 99.0289L78.5175 99.0299L78.76 100ZM54.2 100L53.9612 100.971L53.9612 100.971L54.2 100ZM46.52 96.72L45.8981 97.5031L45.9107 97.5131L45.9237 97.5227L46.52 96.72ZM42.68 91.6L41.7338 91.9237L41.739 91.9389L41.7447 91.9539L42.68 91.6ZM42.68 50.96L41.7417 50.6143L41.739 50.6214L41.7365 50.6285L42.68 50.96ZM46.52 45.76L45.9091 44.9681L45.8981 44.9769L46.52 45.76ZM54.2 42.4L53.9612 41.4289L53.9612 41.4289L54.2 42.4ZM78.76 42.4L78.5175 43.3701L78.5212 43.3711L78.76 42.4ZM86.36 45.76L85.7381 46.5432L85.7492 46.5518L86.36 45.76ZM90.2 50.96L89.2538 51.2837L89.259 51.2989L89.2647 51.3139L90.2 50.96ZM61 84.72L60.3177 85.4511L60.3311 85.4636L60.3451 85.4757L61 84.72ZM72.04 84.72L72.6949 85.4757L72.7089 85.4636L72.7223 85.4511L72.04 84.72ZM72.04 57.92L71.3577 58.6511L71.3712 58.6636L71.3851 58.6757L72.04 57.92ZM61 57.92L61.6549 58.6757L61.6689 58.6636L61.6823 58.6511L61 57.92ZM90.32 84.88C90.32 87.2312 89.9624 89.3523 89.2617 91.2543L91.1383 91.9457C91.9309 89.7944 92.32 87.4354 92.32 84.88H90.32ZM89.2565 91.2685C88.6352 93.037 87.4829 94.5908 85.7492 95.9282L86.9708 97.5118C88.9704 95.9692 90.3781 94.1097 91.1435 91.9315L89.2565 91.2685ZM85.7526 95.9256C84.0874 97.199 81.6981 98.2477 78.5212 99.0289L78.9988 100.971C82.3286 100.152 85.006 99.0143 86.9675 97.5144L85.7526 95.9256ZM78.5175 99.0299C75.4258 99.8028 71.4348 100.2 66.52 100.2V102.2C71.5252 102.2 75.6942 101.797 79.0025 100.97L78.5175 99.0299ZM66.52 100.2C61.6059 100.2 57.5863 99.8029 54.4388 99.0289L53.9612 100.971C57.3203 101.797 61.5141 102.2 66.52 102.2V100.2ZM54.4388 99.0289C51.2623 98.2478 48.8401 97.1977 47.1163 95.9173L45.9237 97.5227C47.9333 99.0156 50.6311 100.152 53.9612 100.971L54.4388 99.0289ZM47.1419 95.9369C45.4556 94.5978 44.292 93.0345 43.6153 91.2461L41.7447 91.9539C42.5613 94.1121 43.9577 95.9622 45.8981 97.5031L47.1419 95.9369ZM43.6262 91.2763C42.9732 89.3678 42.64 87.239 42.64 84.88H40.64C40.64 87.4277 41.0001 89.7789 41.7338 91.9237L43.6262 91.2763ZM42.64 84.88V57.6H40.64V84.88H42.64ZM42.64 57.6C42.64 55.2405 42.9734 53.1417 43.6235 51.2915L41.7365 50.6285C40.9999 52.725 40.64 55.0529 40.64 57.6H42.64ZM43.6183 51.3057C44.297 49.4635 45.4614 47.8776 47.1419 46.5431L45.8981 44.9769C43.952 46.5224 42.5563 48.4031 41.7417 50.6143L43.6183 51.3057ZM47.1308 46.5518C48.8512 45.2246 51.2678 44.1508 54.4388 43.3711L53.9612 41.4289C50.6255 42.2492 47.9222 43.4153 45.9092 44.9682L47.1308 46.5518ZM54.4388 43.3711C57.5863 42.5971 61.6059 42.2 66.52 42.2V40.2C61.5141 40.2 57.3203 40.6029 53.9612 41.4289L54.4388 43.3711ZM66.52 42.2C71.4348 42.2 75.4258 42.5972 78.5175 43.3701L79.0025 41.4299C75.6942 40.6028 71.5252 40.2 66.52 40.2V42.2ZM78.5212 43.3711C81.6924 44.1509 84.0762 45.2233 85.7381 46.5431L86.9819 44.9769C85.0172 43.4167 82.3342 42.2491 78.9988 41.4289L78.5212 43.3711ZM85.7492 46.5518C87.4769 47.8845 88.6303 49.4611 89.2538 51.2837L91.1462 50.6363C90.383 48.4056 88.9765 46.5155 86.9708 44.9682L85.7492 46.5518ZM89.2647 51.3139C89.9622 53.1574 90.32 55.2482 90.32 57.6H92.32C92.32 55.0451 91.9311 52.7093 91.1353 50.6061L89.2647 51.3139ZM90.32 57.6V84.88H92.32V57.6H90.32ZM58.8 82C58.8 83.3519 59.321 84.5208 60.3177 85.4511L61.6823 83.9889C61.079 83.4259 60.8 82.7815 60.8 82H58.8ZM60.3451 85.4757C60.9461 85.9966 61.8166 86.2984 62.7949 86.4827C63.7992 86.6719 65.0472 86.76 66.52 86.76V84.76C65.1128 84.76 64.0008 84.6747 63.1652 84.5173C62.3035 84.3549 61.8539 84.1368 61.6549 83.9643L60.3451 85.4757ZM66.52 86.76C67.9928 86.76 69.2408 86.6719 70.2451 86.4827C71.2235 86.2984 72.0939 85.9966 72.6949 85.4757L71.3851 83.9643C71.1861 84.1368 70.7366 84.3549 69.8749 84.5173C69.0392 84.6747 67.9272 84.76 66.52 84.76V86.76ZM72.7223 85.4511C73.719 84.5208 74.24 83.3519 74.24 82H72.24C72.24 82.7815 71.961 83.4259 71.3577 83.9889L72.7223 85.4511ZM74.24 82V60.48H72.24V82H74.24ZM74.24 60.48C74.24 59.1622 73.7029 58.0379 72.6949 57.1643L71.3851 58.6757C71.9771 59.1888 72.24 59.7712 72.24 60.48H74.24ZM72.7223 57.1889C72.1219 56.6286 71.2458 56.3002 70.2588 56.1C69.2485 55.895 67.9954 55.8 66.52 55.8V57.8C67.9246 57.8 69.0315 57.8917 69.8612 58.06C70.7142 58.2331 71.1581 58.4647 71.3577 58.6511L72.7223 57.1889ZM66.52 55.8C65.0446 55.8 63.7915 55.895 62.7812 56.1C61.7942 56.3002 60.9181 56.6286 60.3177 57.1889L61.6823 58.6511C61.8819 58.4647 62.3258 58.2331 63.1788 58.06C64.0085 57.8917 65.1154 57.8 66.52 57.8V55.8ZM60.3451 57.1643C59.3371 58.0379 58.8 59.1622 58.8 60.48H60.8C60.8 59.7712 61.0629 59.1888 61.6549 58.6757L60.3451 57.1643ZM58.8 60.48V82H60.8V60.48H58.8ZM102.144 99.36L101.397 100.024L101.436 100.068L101.48 100.107L102.144 99.36ZM102.144 43.12L101.437 42.4129L101.437 42.4129L102.144 43.12ZM143.744 46.72L143.011 47.3994L143.011 47.3994L143.744 46.72ZM143.744 79.52L143.011 78.8406L143.011 78.8406L143.744 79.52ZM119.664 83.84V82.84H118.664V83.84H119.664ZM118.944 99.36L118.237 98.6529L118.237 98.6529L118.944 99.36ZM119.504 57.36V56.36H118.504V57.36H119.504ZM119.504 69.44H118.504V70.44H119.504V69.44ZM129.744 68.24L130.602 68.7545L130.602 68.7545L129.744 68.24ZM129.744 58.56L128.887 59.0745L128.887 59.0745L129.744 58.56ZM116.784 99H104.384V101H116.784V99ZM104.384 99C103.481 99 103.025 98.8051 102.809 98.6126L101.48 100.107C102.223 100.768 103.261 101 104.384 101V99ZM102.892 98.6956C102.699 98.4791 102.504 98.0231 102.504 97.12H100.504C100.504 98.2436 100.736 99.2809 101.397 100.024L102.892 98.6956ZM102.504 97.12V45.28H100.504V97.12H102.504ZM102.504 45.28C102.504 44.3621 102.705 43.9731 102.851 43.8271L101.437 42.4129C100.73 43.1202 100.504 44.1713 100.504 45.28H102.504ZM102.851 43.8271C103.069 43.6097 103.507 43.4 104.384 43.4V41.4C103.235 41.4 102.18 41.6703 101.437 42.4129L102.851 43.8271ZM104.384 43.4H128.864V41.4H104.384V43.4ZM128.864 43.4C136.055 43.4 140.642 44.8411 143.011 47.3994L144.478 46.0406C141.514 42.8389 136.181 41.4 128.864 41.4V43.4ZM143.011 47.3994C145.476 50.0616 146.744 53.5631 146.744 58H148.744C148.744 53.1569 147.346 49.1384 144.478 46.0406L143.011 47.3994ZM146.744 58V68.24H148.744V58H146.744ZM146.744 68.24C146.744 72.6769 145.476 76.1784 143.011 78.8406L144.478 80.1994C147.346 77.1016 148.744 73.0831 148.744 68.24H146.744ZM143.011 78.8406C140.642 81.3989 136.055 82.84 128.864 82.84V84.84C136.181 84.84 141.514 83.4011 144.478 80.1994L143.011 78.8406ZM128.864 82.84H119.664V84.84H128.864V82.84ZM118.664 83.84V97.12H120.664V83.84H118.664ZM118.664 97.12C118.664 97.9975 118.455 98.4355 118.237 98.6529L119.651 100.067C120.394 99.3245 120.664 98.2691 120.664 97.12H118.664ZM118.237 98.6529C118.091 98.7989 117.702 99 116.784 99V101C117.893 101 118.944 100.774 119.651 100.067L118.237 98.6529ZM118.504 57.36V69.44H120.504V57.36H118.504ZM119.504 70.44H126.704V68.44H119.504V70.44ZM126.704 70.44C128.363 70.44 129.845 70.0156 130.602 68.7545L128.887 67.7255C128.684 68.0644 128.139 68.44 126.704 68.44V70.44ZM130.602 68.7545C131.183 67.7858 131.464 66.6984 131.464 65.52H129.464C129.464 66.3682 129.266 67.0942 128.887 67.7255L130.602 68.7545ZM131.464 65.52V61.28H129.464V65.52H131.464ZM131.464 61.28C131.464 60.1016 131.183 59.0142 130.602 58.0455L128.887 59.0745C129.266 59.7058 129.464 60.4318 129.464 61.28H131.464ZM130.602 58.0455C129.845 56.7844 128.363 56.36 126.704 56.36V58.36C128.139 58.36 128.684 58.7356 128.887 59.0745L130.602 58.0455ZM126.704 56.36H119.504V58.36H126.704V56.36ZM168.036 99.36L167.288 100.024L167.327 100.068L167.371 100.107L168.036 99.36ZM167.396 57.84H168.396V56.84H167.396V57.84ZM153.396 57.2L152.648 57.8644L152.687 57.9083L152.731 57.9474L153.396 57.2ZM153.396 43.12L152.689 42.4129L152.689 42.4129L153.396 43.12ZM200.036 43.12L199.288 43.7844L199.327 43.8283L199.371 43.8674L200.036 43.12ZM186.116 57.84V56.84H185.116V57.84H186.116ZM185.396 99.36L184.689 98.6529L184.689 98.6529L185.396 99.36ZM183.236 99H170.276V101H183.236V99ZM170.276 99C169.373 99 168.917 98.8051 168.7 98.6126L167.371 100.107C168.115 100.768 169.152 101 170.276 101V99ZM168.783 98.6956C168.591 98.4791 168.396 98.0231 168.396 97.12H166.396C166.396 98.2436 166.627 99.2809 167.288 100.024L168.783 98.6956ZM168.396 97.12V57.84H166.396V97.12H168.396ZM167.396 56.84H155.636V58.84H167.396V56.84ZM155.636 56.84C154.733 56.84 154.277 56.6451 154.06 56.4526L152.731 57.9474C153.475 58.6083 154.512 58.84 155.636 58.84V56.84ZM154.143 56.5356C153.951 56.3191 153.756 55.8631 153.756 54.96H151.756C151.756 56.0836 151.987 57.1209 152.648 57.8644L154.143 56.5356ZM153.756 54.96V45.28H151.756V54.96H153.756ZM153.756 45.28C153.756 44.3621 153.957 43.9731 154.103 43.8271L152.689 42.4129C151.981 43.1202 151.756 44.1713 151.756 45.28H153.756ZM154.103 43.8271C154.32 43.6097 154.758 43.4 155.636 43.4V41.4C154.486 41.4 153.431 41.6703 152.689 42.4129L154.103 43.8271ZM155.636 43.4H197.876V41.4H155.636V43.4ZM197.876 43.4C198.766 43.4 199.138 43.615 199.288 43.7844L200.783 42.4556C200.08 41.665 199.012 41.4 197.876 41.4V43.4ZM199.371 43.8674C199.541 44.0179 199.756 44.3895 199.756 45.28H201.756C201.756 44.1438 201.491 43.0754 200.7 42.3726L199.371 43.8674ZM199.756 45.28V54.96H201.756V45.28H199.756ZM199.756 54.96C199.756 55.8375 199.546 56.2755 199.329 56.4929L200.743 57.9071C201.485 57.1645 201.756 56.1091 201.756 54.96H199.756ZM199.329 56.4929C199.183 56.6389 198.794 56.84 197.876 56.84V58.84C198.984 58.84 200.035 58.6144 200.743 57.9071L199.329 56.4929ZM197.876 56.84H186.116V58.84H197.876V56.84ZM185.116 57.84V97.12H187.116V57.84H185.116ZM185.116 97.12C185.116 97.9975 184.906 98.4355 184.689 98.6529L186.103 100.067C186.845 99.3245 187.116 98.2691 187.116 97.12H185.116ZM184.689 98.6529C184.543 98.7989 184.154 99 183.236 99V101C184.344 101 185.395 100.774 186.103 100.067L184.689 98.6529ZM207.896 99.36L207.148 100.024L207.187 100.068L207.231 100.107L207.896 99.36ZM207.896 85.44L208.603 86.1471L208.603 86.1471L207.896 85.44ZM218.056 84.72V85.72H219.056V84.72H218.056ZM218.056 57.84H219.056V56.84H218.056V57.84ZM207.896 57.2L207.148 57.8644L207.187 57.9083L207.231 57.9474L207.896 57.2ZM207.896 43.12L207.189 42.4129L207.189 42.4129L207.896 43.12ZM246.376 43.12L245.628 43.7844L245.667 43.8283L245.711 43.8674L246.376 43.12ZM246.376 57.2L247.083 57.9071L247.083 57.9071L246.376 57.2ZM236.456 57.84V56.84H235.456V57.84H236.456ZM236.456 84.72H235.456V85.72H236.456V84.72ZM246.376 85.44L245.628 86.1044L245.667 86.1483L245.711 86.1874L246.376 85.44ZM246.376 99.36L247.083 100.067L247.083 100.067L246.376 99.36ZM210.136 99C209.233 99 208.777 98.8051 208.56 98.6126L207.231 100.107C207.975 100.768 209.012 101 210.136 101V99ZM208.643 98.6956C208.451 98.4791 208.256 98.0231 208.256 97.12H206.256C206.256 98.2436 206.487 99.2809 207.148 100.024L208.643 98.6956ZM208.256 97.12V87.6H206.256V97.12H208.256ZM208.256 87.6C208.256 86.6821 208.457 86.2931 208.603 86.1471L207.189 84.7329C206.481 85.4402 206.256 86.4913 206.256 87.6H208.256ZM208.603 86.1471C208.82 85.9297 209.258 85.72 210.136 85.72V83.72C208.986 83.72 207.931 83.9903 207.189 84.7329L208.603 86.1471ZM210.136 85.72H218.056V83.72H210.136V85.72ZM219.056 84.72V57.84H217.056V84.72H219.056ZM218.056 56.84H210.136V58.84H218.056V56.84ZM210.136 56.84C209.233 56.84 208.777 56.6451 208.56 56.4526L207.231 57.9474C207.975 58.6083 209.012 58.84 210.136 58.84V56.84ZM208.643 56.5356C208.451 56.3191 208.256 55.8631 208.256 54.96H206.256C206.256 56.0836 206.487 57.1209 207.148 57.8644L208.643 56.5356ZM208.256 54.96V45.28H206.256V54.96H208.256ZM208.256 45.28C208.256 44.3621 208.457 43.9731 208.603 43.8271L207.189 42.4129C206.481 43.1202 206.256 44.1713 206.256 45.28H208.256ZM208.603 43.8271C208.82 43.6097 209.258 43.4 210.136 43.4V41.4C208.986 41.4 207.931 41.6703 207.189 42.4129L208.603 43.8271ZM210.136 43.4H244.216V41.4H210.136V43.4ZM244.216 43.4C245.106 43.4 245.478 43.615 245.628 43.7844L247.123 42.4556C246.42 41.665 245.352 41.4 244.216 41.4V43.4ZM245.711 43.8674C245.881 44.0179 246.096 44.3895 246.096 45.28H248.096C248.096 44.1438 247.831 43.0754 247.04 42.3726L245.711 43.8674ZM246.096 45.28V54.96H248.096V45.28H246.096ZM246.096 54.96C246.096 55.8375 245.886 56.2755 245.669 56.4929L247.083 57.9071C247.825 57.1645 248.096 56.1091 248.096 54.96H246.096ZM245.669 56.4929C245.523 56.6389 245.134 56.84 244.216 56.84V58.84C245.324 58.84 246.375 58.6144 247.083 57.9071L245.669 56.4929ZM244.216 56.84H236.456V58.84H244.216V56.84ZM235.456 57.84V84.72H237.456V57.84H235.456ZM236.456 85.72H244.216V83.72H236.456V85.72ZM244.216 85.72C245.106 85.72 245.478 85.935 245.628 86.1044L247.123 84.7756C246.42 83.985 245.352 83.72 244.216 83.72V85.72ZM245.711 86.1874C245.881 86.3379 246.096 86.7095 246.096 87.6H248.096C248.096 86.4638 247.831 85.3954 247.04 84.6926L245.711 86.1874ZM246.096 87.6V97.12H248.096V87.6H246.096ZM246.096 97.12C246.096 97.9975 245.886 98.4355 245.669 98.6529L247.083 100.067C247.825 99.3245 248.096 98.2691 248.096 97.12H246.096ZM245.669 98.6529C245.523 98.7989 245.134 99 244.216 99V101C245.324 101 246.375 100.774 247.083 100.067L245.669 98.6529ZM244.216 99H210.136V101H244.216V99ZM257.613 99.36L256.866 100.024L256.905 100.068L256.949 100.107L257.613 99.36ZM257.613 43.12L256.906 42.4129L256.906 42.4129L257.613 43.12ZM274.813 42.96L274.24 43.7792L274.258 43.7918L274.276 43.8037L274.813 42.96ZM276.413 44.8L277.289 44.3166L277.285 44.3097L276.413 44.8ZM283.613 57.84L282.738 58.3234L282.739 58.3256L283.613 57.84ZM284.253 58.88L283.453 59.48L283.496 59.5369L283.546 59.5871L284.253 58.88ZM286.493 58.88L285.786 58.1729L285.736 58.2231L285.693 58.28L286.493 58.88ZM287.213 57.84L288.087 58.3257L288.091 58.3192L287.213 57.84ZM294.333 44.8L293.461 44.3097L293.455 44.3208L294.333 44.8ZM295.853 42.96L295.316 42.1163L295.298 42.1281L295.28 42.1408L295.853 42.96ZM313.133 43.12L312.386 43.7844L312.425 43.8283L312.469 43.8674L313.133 43.12ZM313.133 99.36L313.84 100.067L313.84 100.067L313.133 99.36ZM296.413 99.36L295.666 100.024L295.705 100.068L295.749 100.107L296.413 99.36ZM295.773 68.96H296.773L294.894 68.484L295.773 68.96ZM291.053 77.68L290.174 77.204L290.169 77.2121L291.053 77.68ZM289.293 79.68L289.797 80.5438L289.807 80.5378L289.817 80.5317L289.293 79.68ZM281.053 79.68L280.498 80.512L280.538 80.5382L280.579 80.5605L281.053 79.68ZM279.373 77.68L280.257 77.2121L280.253 77.204L279.373 77.68ZM274.653 68.96L275.533 68.484L273.653 68.96H274.653ZM273.933 99.36L274.64 100.067L274.64 100.067L273.933 99.36ZM271.773 99H259.853V101H271.773V99ZM259.853 99C258.95 99 258.494 98.8051 258.277 98.6126L256.949 100.107C257.692 100.768 258.73 101 259.853 101V99ZM258.361 98.6956C258.168 98.4791 257.973 98.0231 257.973 97.12H255.973C255.973 98.2436 256.205 99.2809 256.866 100.024L258.361 98.6956ZM257.973 97.12V45.28H255.973V97.12H257.973ZM257.973 45.28C257.973 44.3621 258.174 43.9731 258.32 43.8271L256.906 42.4129C256.199 43.1202 255.973 44.1713 255.973 45.28H257.973ZM258.32 43.8271C258.538 43.6097 258.976 43.4 259.853 43.4V41.4C258.704 41.4 257.649 41.6703 256.906 42.4129L258.32 43.8271ZM259.853 43.4H272.733V41.4H259.853V43.4ZM272.733 43.4C273.444 43.4 273.92 43.5552 274.24 43.7792L275.387 42.1408C274.64 41.6181 273.728 41.4 272.733 41.4V43.4ZM274.276 43.8037C274.679 44.0599 275.111 44.5253 275.542 45.2903L277.285 44.3097C276.755 43.368 276.121 42.6068 275.35 42.1163L274.276 43.8037ZM275.538 45.2834L282.738 58.3234L284.489 57.3566L277.289 44.3166L275.538 45.2834ZM282.739 58.3256C283.01 58.813 283.25 59.2094 283.453 59.48L285.053 58.28C284.936 58.124 284.75 57.827 284.487 57.3544L282.739 58.3256ZM283.546 59.5871C283.959 60.0002 284.486 60.2 285.053 60.2V58.2C285.006 58.2 284.987 58.1925 284.985 58.1915C284.982 58.1907 284.98 58.1897 284.978 58.1879C284.975 58.1861 284.969 58.1818 284.96 58.1729L283.546 59.5871ZM285.053 60.2H285.773V58.2H285.053V60.2ZM285.773 60.2C286.337 60.2 286.905 59.9968 287.293 59.48L285.693 58.28C285.702 58.2687 285.715 58.2539 285.733 58.2391C285.752 58.2243 285.771 58.2134 285.787 58.2062C285.82 58.1917 285.823 58.2 285.773 58.2V60.2ZM287.2 59.5871C287.512 59.275 287.806 58.832 288.087 58.3256L286.339 57.3544C286.087 57.808 285.901 58.0584 285.786 58.1729L287.2 59.5871ZM288.091 58.3192L295.211 45.2792L293.455 44.3208L286.335 57.3608L288.091 58.3192ZM295.205 45.2903C295.645 44.5075 296.062 44.0343 296.427 43.7792L295.28 42.1408C294.577 42.6323 293.981 43.3858 293.462 44.3097L295.205 45.2903ZM296.39 43.8037C296.783 43.5534 297.307 43.4 298.013 43.4V41.4C297.013 41.4 296.096 41.6199 295.316 42.1163L296.39 43.8037ZM298.013 43.4H310.973V41.4H298.013V43.4ZM310.973 43.4C311.864 43.4 312.235 43.615 312.386 43.7844L313.881 42.4556C313.178 41.665 312.109 41.4 310.973 41.4V43.4ZM312.469 43.8674C312.638 44.0179 312.853 44.3895 312.853 45.28H314.853C314.853 44.1438 314.588 43.0754 313.797 42.3726L312.469 43.8674ZM312.853 45.28V97.12H314.853V45.28H312.853ZM312.853 97.12C312.853 97.9975 312.643 98.4355 312.426 98.6529L313.84 100.067C314.583 99.3245 314.853 98.2691 314.853 97.12H312.853ZM312.426 98.6529C312.28 98.7989 311.891 99 310.973 99V101C312.082 101 313.133 100.774 313.84 100.067L312.426 98.6529ZM310.973 99H298.653V101H310.973V99ZM298.653 99C297.75 99 297.294 98.8051 297.077 98.6126L295.749 100.107C296.492 100.768 297.53 101 298.653 101V99ZM297.161 98.6956C296.968 98.4791 296.773 98.0231 296.773 97.12H294.773C294.773 98.2436 295.005 99.2809 295.666 100.024L297.161 98.6956ZM296.773 97.12V68.96H294.773V97.12H296.773ZM294.894 68.484L290.174 77.204L291.933 78.156L296.653 69.436L294.894 68.484ZM290.169 77.2121C289.751 78.0016 289.276 78.5166 288.769 78.8283L289.817 80.5317C290.697 79.99 291.395 79.1718 291.937 78.1479L290.169 77.2121ZM288.789 78.8162C288.348 79.0734 287.712 79.24 286.813 79.24V81.24C287.941 81.24 288.958 81.0332 289.797 80.5438L288.789 78.8162ZM286.813 79.24H283.613V81.24H286.813V79.24ZM283.613 79.24C282.719 79.24 282.039 79.0751 281.527 78.7995L280.579 80.5605C281.454 81.0316 282.48 81.24 283.613 81.24V79.24ZM281.608 78.8479C281.145 78.5391 280.684 78.0191 280.257 77.2121L278.489 78.1479C279.022 79.1543 279.682 79.9676 280.498 80.512L281.608 78.8479ZM280.253 77.204L275.533 68.484L273.774 69.436L278.494 78.156L280.253 77.204ZM273.653 68.96V97.12H275.653V68.96H273.653ZM273.653 97.12C273.653 97.9975 273.443 98.4355 273.226 98.6529L274.64 100.067C275.383 99.3245 275.653 98.2691 275.653 97.12H273.653ZM273.226 98.6529C273.08 98.7989 272.691 99 271.773 99V101C272.882 101 273.933 100.774 274.64 100.067L273.226 98.6529ZM345.744 59.2L344.83 58.7939L344.806 58.848L344.788 58.9046L345.744 59.2ZM341.984 71.36L341.028 71.0646L340.628 72.36H341.984V71.36ZM354.544 71.36V72.36H355.9L355.499 71.0646L354.544 71.36ZM350.784 59.2L351.739 58.9046L351.722 58.848L351.698 58.7939L350.784 59.2ZM350.064 58.16L349.357 58.8671L349.396 58.9063L349.439 58.9409L350.064 58.16ZM346.384 58.16L345.759 57.3791L345.716 57.4137L345.677 57.4529L346.384 58.16ZM340.464 99.36L339.757 98.6529L339.757 98.6529L340.464 99.36ZM324.304 99.36L323.556 100.024L323.595 100.068L323.639 100.107L324.304 99.36ZM324.384 70.48L323.415 70.2316L323.412 70.2433L323.409 70.2551L324.384 70.48ZM326.784 63.2L327.717 63.559L327.718 63.5579L326.784 63.2ZM333.744 45.04L334.678 45.3979L334.682 45.3854L334.687 45.3728L333.744 45.04ZM335.184 43.04L334.66 42.1883L334.644 42.1979L334.629 42.2079L335.184 43.04ZM361.824 43.04L361.269 43.872L361.284 43.8821L361.3 43.8917L361.824 43.04ZM363.344 45.04L362.401 45.3728L362.405 45.3854L362.41 45.3979L363.344 45.04ZM370.304 63.2L369.37 63.5579L369.37 63.559L370.304 63.2ZM372.624 70.48L371.649 70.7049L371.652 70.7167L371.655 70.7284L372.624 70.48ZM372.704 99.36L373.411 100.067L373.411 100.067L372.704 99.36ZM356.064 99.36L355.357 100.067L355.396 100.106L355.439 100.141L356.064 99.36ZM355.344 85.92H356.344V84.92H355.344V85.92ZM341.184 85.92V84.92H340.184V85.92H341.184ZM344.788 58.9046L341.028 71.0646L342.939 71.6554L346.699 59.4954L344.788 58.9046ZM341.984 72.36H354.544V70.36H341.984V72.36ZM355.499 71.0646L351.739 58.9046L349.828 59.4954L353.588 71.6554L355.499 71.0646ZM351.698 58.7939C351.451 58.2391 351.129 57.732 350.688 57.3791L349.439 58.9409C349.531 59.0147 349.69 59.2009 349.87 59.6061L351.698 58.7939ZM350.771 57.4529C350.358 57.0398 349.831 56.84 349.264 56.84V58.84C349.311 58.84 349.33 58.8475 349.332 58.8485C349.334 58.8493 349.336 58.8503 349.339 58.852C349.342 58.8539 349.348 58.8582 349.357 58.8671L350.771 57.4529ZM349.264 56.84H347.264V58.84H349.264V56.84ZM347.264 56.84C346.701 56.84 346.19 57.0342 345.759 57.3791L347.008 58.9409C347.111 58.8592 347.187 58.84 347.264 58.84V56.84ZM345.677 57.4529C345.335 57.7946 345.062 58.2722 344.83 58.7939L346.658 59.6061C346.852 59.1678 347.006 58.9521 347.091 58.8671L345.677 57.4529ZM340.184 97.12C340.184 97.9975 339.974 98.4355 339.757 98.6529L341.171 100.067C341.913 99.3245 342.184 98.2691 342.184 97.12H340.184ZM339.757 98.6529C339.611 98.7989 339.222 99 338.304 99V101C339.412 101 340.464 100.774 341.171 100.067L339.757 98.6529ZM338.304 99H326.544V101H338.304V99ZM326.544 99C325.641 99 325.185 98.8051 324.968 98.6126L323.639 100.107C324.383 100.768 325.42 101 326.544 101V99ZM325.051 98.6956C324.859 98.4791 324.664 98.0231 324.664 97.12H322.664C322.664 98.2436 322.895 99.2809 323.556 100.024L325.051 98.6956ZM324.664 97.12V76H322.664V97.12H324.664ZM324.664 76C324.664 74.496 324.89 72.734 325.358 70.7049L323.409 70.2551C322.918 72.386 322.664 74.304 322.664 76H324.664ZM325.352 70.7284C325.873 68.697 326.659 66.3088 327.717 63.559L325.85 62.841C324.775 65.6379 323.961 68.103 323.415 70.2316L325.352 70.7284ZM327.718 63.5579L334.678 45.3979L332.81 44.6821L325.85 62.8421L327.718 63.5579ZM334.687 45.3728C334.953 44.6184 335.319 44.1514 335.738 43.8721L334.629 42.2079C333.768 42.7819 333.174 43.6483 332.801 44.7072L334.687 45.3728ZM335.708 43.8917C336.202 43.5877 336.886 43.4 337.824 43.4V41.4C336.628 41.4 335.552 41.639 334.66 42.1883L335.708 43.8917ZM337.824 43.4H359.344V41.4H337.824V43.4ZM359.344 43.4C360.221 43.4 360.838 43.5847 361.269 43.872L362.378 42.2079C361.529 41.6419 360.493 41.4 359.344 41.4V43.4ZM361.3 43.8917C361.764 44.1776 362.143 44.6412 362.401 45.3728L364.287 44.7072C363.905 43.6255 363.27 42.7558 362.348 42.1883L361.3 43.8917ZM362.41 45.3979L369.37 63.5579L371.238 62.8421L364.278 44.6821L362.41 45.3979ZM369.37 63.559C370.426 66.3042 371.183 68.6842 371.649 70.7049L373.598 70.2551C373.104 68.1158 372.315 65.6425 371.237 62.841L369.37 63.559ZM371.655 70.7284C372.174 72.753 372.424 74.5067 372.424 76H374.424C374.424 74.2933 374.14 72.367 373.592 70.2316L371.655 70.7284ZM372.424 76V97.12H374.424V76H372.424ZM372.424 97.12C372.424 97.9975 372.214 98.4355 371.997 98.6529L373.411 100.067C374.153 99.3245 374.424 98.2691 374.424 97.12H372.424ZM371.997 98.6529C371.851 98.7989 371.462 99 370.544 99V101C371.652 101 372.704 100.774 373.411 100.067L371.997 98.6529ZM370.544 99H358.464V101H370.544V99ZM358.464 99C357.504 99 356.969 98.8037 356.688 98.5791L355.439 100.141C356.225 100.77 357.29 101 358.464 101V99ZM356.771 98.6529C356.553 98.4355 356.344 97.9975 356.344 97.12H354.344C354.344 98.2691 354.614 99.3245 355.357 100.067L356.771 98.6529ZM356.344 97.12V85.92H354.344V97.12H356.344ZM355.344 84.92H341.184V86.92H355.344V84.92ZM340.184 85.92V97.12H342.184V85.92H340.184ZM383.941 99.36L383.194 100.024L383.233 100.068L383.277 100.107L383.941 99.36ZM383.941 43.12L383.234 42.4129L383.234 42.4129L383.941 43.12ZM400.741 43.12L399.994 43.7844L400.033 43.8283L400.077 43.8674L400.741 43.12ZM401.461 84.88H400.461V85.88H401.461V84.88ZM412.421 84.88V85.88H413.421V84.88H412.421ZM413.061 69.76L412.354 69.0529L412.354 69.0529L413.061 69.76ZM429.061 69.76L428.314 70.4244L428.353 70.4683L428.397 70.5074L429.061 69.76ZM429.061 99.36L429.768 100.067L429.768 100.067L429.061 99.36ZM426.901 99H386.181V101H426.901V99ZM386.181 99C385.278 99 384.822 98.8051 384.606 98.6126L383.277 100.107C384.02 100.768 385.058 101 386.181 101V99ZM384.689 98.6956C384.496 98.4791 384.301 98.0231 384.301 97.12H382.301C382.301 98.2436 382.533 99.2809 383.194 100.024L384.689 98.6956ZM384.301 97.12V45.28H382.301V97.12H384.301ZM384.301 45.28C384.301 44.3621 384.502 43.9731 384.648 43.8271L383.234 42.4129C382.527 43.1202 382.301 44.1713 382.301 45.28H384.301ZM384.648 43.8271C384.866 43.6097 385.304 43.4 386.181 43.4V41.4C385.032 41.4 383.977 41.6703 383.234 42.4129L384.648 43.8271ZM386.181 43.4H398.581V41.4H386.181V43.4ZM398.581 43.4C399.472 43.4 399.843 43.615 399.994 43.7844L401.489 42.4556C400.786 41.665 399.717 41.4 398.581 41.4V43.4ZM400.077 43.8674C400.246 44.0179 400.461 44.3895 400.461 45.28H402.461C402.461 44.1438 402.196 43.0754 401.406 42.3726L400.077 43.8674ZM400.461 45.28V84.88H402.461V45.28H400.461ZM401.461 85.88H412.421V83.88H401.461V85.88ZM413.421 84.88V71.92H411.421V84.88H413.421ZM413.421 71.92C413.421 71.0021 413.622 70.6131 413.768 70.4671L412.354 69.0529C411.647 69.7602 411.421 70.8113 411.421 71.92H413.421ZM413.768 70.4671C413.986 70.2497 414.424 70.04 415.301 70.04V68.04C414.152 68.04 413.097 68.3103 412.354 69.0529L413.768 70.4671ZM415.301 70.04H426.901V68.04H415.301V70.04ZM426.901 70.04C427.792 70.04 428.163 70.255 428.314 70.4244L429.809 69.0956C429.106 68.305 428.037 68.04 426.901 68.04V70.04ZM428.397 70.5074C428.566 70.6579 428.781 71.0295 428.781 71.92H430.781C430.781 70.7838 430.516 69.7154 429.726 69.0126L428.397 70.5074ZM428.781 71.92V97.12H430.781V71.92H428.781ZM428.781 97.12C428.781 97.9975 428.572 98.4355 428.354 98.6529L429.768 100.067C430.511 99.3245 430.781 98.2691 430.781 97.12H428.781ZM428.354 98.6529C428.208 98.7989 427.819 99 426.901 99V101C428.01 101 429.061 100.774 429.768 100.067L428.354 98.6529Z" fill="black" mask="url(#path-18-outside-1_3_6)"/>
</g>
<defs>
<filter id="filter0_d_3_6" x="47.64" y="46.2" width="396.141" height="68" filterUnits="userSpaceOnUse" color-interpolation-filters="sRGB">
<feFlood flood-opacity="0" result="BackgroundImageFix"/>
<feColorMatrix in="SourceAlpha" type="matrix" values="0 0 0 0 0 0 0 0 0 0 0 0 0 0 0 0 0 0 127 0" result="hardAlpha"/>
<feOffset dy="4"/>
<feGaussianBlur stdDeviation="2"/>
<feComposite in2="hardAlpha" operator="out"/>
<feColorMatrix type="matrix" values="0 0 0 0 0 0 0 0 0 0 0 0 0 0 0 0 0 0 0.25 0"/>
<feBlend mode="normal" in2="BackgroundImageFix" result="effect1_dropShadow_3_6"/>
<feBlend mode="normal" in="SourceGraphic" in2="effect1_dropShadow_3_6" result="shape"/>
</filter>
<clipPath id="clip0_3_6">
<rect width="490" height="140" fill="white"/>
</clipPath>
</defs>
</svg>
