<svg width="1024" height="1024" viewBox="0 0 1024 1024" fill="none" xmlns="http://www.w3.org/2000/svg">
<g filter="url(#filter0_d_11_2)">
<path d="M211.874 555.041H191.036V647H114.932V365.687H206.891C239.205 365.687 263.214 373.086 278.918 387.884C294.622 402.682 302.474 426.993 302.474 460.817C302.474 494.641 295.075 518.801 280.277 533.297C265.479 547.793 242.678 555.041 211.874 555.041ZM220.481 493.886C223.199 488.752 224.558 479.541 224.558 466.253C224.558 452.965 223.048 443.603 220.028 438.167C217.008 432.731 210.968 430.013 201.908 430.013H191.036V501.587H203.72C212.176 501.587 217.763 499.02 220.481 493.886ZM477.272 647H325.064V365.687H481.802L477.272 434.996H402.527V477.125H467.306V536.921H402.527V583.58H481.802L477.272 647ZM710.248 647H634.597L625.99 602.606H572.536L563.929 647H491.902L543.544 365.687H658.606L710.248 647ZM617.383 549.605L601.528 449.039H598.357L582.502 549.605H617.383ZM933.146 647H847.529L813.554 540.998H809.024V647H733.826V365.687H809.024V483.467H813.554L854.324 365.687H937.676L882.863 511.1L933.146 647Z" fill="black"/>
</g>
<rect y="580" width="60" height="5" fill="#2885FF"/>
<rect x="989" y="580" width="35" height="5" fill="#2885FF"/>
<rect x="56" y="582.908" width="300" height="5" transform="rotate(-70 56 582.908)" fill="url(#paint0_linear_11_2)"/>
<rect x="275" y="736.481" width="85" height="5" transform="rotate(-80 275 736.481)" fill="#2885FF"/>
<rect x="307.101" y="702.695" width="50" height="5" transform="rotate(-110 307.101 702.695)" fill="#2885FF"/>
<rect x="307.363" y="699.911" width="450" height="5" transform="rotate(-76 307.363 699.911)" fill="url(#paint1_linear_11_2)"/>
<rect x="460.485" y="460.436" width="200" height="5" transform="rotate(-103 460.485 460.436)" fill="#FFA527"/>
<rect x="460.343" y="458.941" width="300" height="5" transform="rotate(-77.3177 460.343 458.941)" fill="#FFA527"/>
<rect x="578.459" y="463.791" width="300" height="5" transform="rotate(-100 578.459 463.791)" fill="#FFA527"/>
<rect x="565.01" y="490.544" width="200" height="5" transform="rotate(-70 565.01 490.544)" fill="#FFA527"/>
<rect x="657.761" y="402.561" width="100" height="5" transform="rotate(-104 657.761 402.561)" fill="#FFA527"/>
<rect x="750.365" y="818.349" width="450" height="5" transform="rotate(-100 750.365 818.349)" fill="url(#paint2_linear_11_2)"/>
<rect x="657.335" y="401.24" width="30" height="5" transform="rotate(-60 657.335 401.24)" fill="#FFA527"/>
<rect x="751" y="815.481" width="100" height="5" transform="rotate(-80 751 815.481)" fill="#2885FF"/>
<rect x="797.925" y="755.686" width="45" height="5" transform="rotate(-130 797.925 755.686)" fill="#2885FF"/>
<rect x="797" y="749.442" width="500" height="5" transform="rotate(-80 797 749.442)" fill="url(#paint3_linear_11_2)"/>
<rect x="916.835" y="496.75" width="240" height="5" transform="rotate(-98 916.835 496.75)" fill="#FFA527"/>
<rect x="916.784" y="493.196" width="50" height="5" transform="rotate(-59 916.784 493.196)" fill="#FFA527"/>
<rect x="960.671" y="561.514" width="110" height="5" transform="rotate(-100 960.671 561.514)" fill="url(#paint4_linear_11_2)"/>
<rect x="988.884" y="585.057" width="37" height="5" transform="rotate(-140 988.884 585.057)" fill="#2885FF"/>
<rect x="274.528" y="738.664" width="450" height="5" transform="rotate(-105 274.528 738.664)" fill="url(#paint5_linear_11_2)"/>
<path d="M211.1 549.65H190.4V641H114.8V361.55H206.15C238.25 361.55 262.1 368.9 277.7 383.6C293.3 398.3 301.1 422.45 301.1 456.05C301.1 489.65 293.75 513.65 279.05 528.05C264.35 542.45 241.7 549.65 211.1 549.65ZM219.65 488.9C222.35 483.8 223.7 474.65 223.7 461.45C223.7 448.25 222.2 438.95 219.2 433.55C216.2 428.15 210.2 425.45 201.2 425.45H190.4V496.55H203C211.4 496.55 216.95 494 219.65 488.9ZM474.74 641H323.54V361.55H479.24L474.74 430.4H400.49V472.25H464.84V531.65H400.49V578H479.24L474.74 641ZM706.174 641H631.024L622.474 596.9H569.374L560.824 641H489.274L540.574 361.55H654.874L706.174 641ZM613.924 544.25L598.174 444.35H595.024L579.274 544.25H613.924ZM927.595 641H842.545L808.795 535.7H804.295V641H729.595V361.55H804.295V478.55H808.795L849.295 361.55H932.095L877.645 506L927.595 641Z" fill="url(#paint6_linear_11_2)"/>
<defs>
<filter id="filter0_d_11_2" x="110.932" y="365.687" width="830.744" height="289.313" filterUnits="userSpaceOnUse" color-interpolation-filters="sRGB">
<feFlood flood-opacity="0" result="BackgroundImageFix"/>
<feColorMatrix in="SourceAlpha" type="matrix" values="0 0 0 0 0 0 0 0 0 0 0 0 0 0 0 0 0 0 127 0" result="hardAlpha"/>
<feOffset dy="4"/>
<feGaussianBlur stdDeviation="2"/>
<feComposite in2="hardAlpha" operator="out"/>
<feColorMatrix type="matrix" values="0 0 0 0 0 0 0 0 0 0 0 0 0 0 0 0 0 0 1 0"/>
<feBlend mode="normal" in2="BackgroundImageFix" result="effect1_dropShadow_11_2"/>
<feBlend mode="normal" in="SourceGraphic" in2="effect1_dropShadow_11_2" result="shape"/>
</filter>
<linearGradient id="paint0_linear_11_2" x1="56" y1="585.408" x2="356" y2="585.408" gradientUnits="userSpaceOnUse">
<stop stop-color="#2885FF"/>
<stop offset="0.384615" stop-color="#FFA527"/>
</linearGradient>
<linearGradient id="paint1_linear_11_2" x1="307.363" y1="702.411" x2="757.363" y2="702.411" gradientUnits="userSpaceOnUse">
<stop stop-color="#2885FF"/>
<stop offset="0.475962" stop-color="#FFA527"/>
</linearGradient>
<linearGradient id="paint2_linear_11_2" x1="1200.36" y1="820.849" x2="750.365" y2="820.849" gradientUnits="userSpaceOnUse">
<stop stop-color="#FFA527"/>
<stop offset="1" stop-color="#2885FF"/>
</linearGradient>
<linearGradient id="paint3_linear_11_2" x1="1297" y1="751.942" x2="797" y2="751.942" gradientUnits="userSpaceOnUse">
<stop stop-color="#FFA527"/>
<stop offset="1" stop-color="#2885FF"/>
</linearGradient>
<linearGradient id="paint4_linear_11_2" x1="1070.67" y1="564.014" x2="960.671" y2="564.014" gradientUnits="userSpaceOnUse">
<stop stop-color="#FFA527"/>
<stop offset="1" stop-color="#2885FF"/>
</linearGradient>
<linearGradient id="paint5_linear_11_2" x1="274.528" y1="741.164" x2="724.528" y2="741.164" gradientUnits="userSpaceOnUse">
<stop offset="0.182692" stop-color="#2885FF"/>
<stop offset="0.644231" stop-color="#FFA527"/>
</linearGradient>
<linearGradient id="paint6_linear_11_2" x1="512" y1="265" x2="512" y2="760" gradientUnits="userSpaceOnUse">
<stop stop-color="white"/>
<stop offset="0.836538" stop-color="#2885FF"/>
</linearGradient>
</defs>
</svg>
