<svg width="819" height="280" viewBox="0 0 819 280" fill="none" xmlns="http://www.w3.org/2000/svg">
<path d="M97.1 188.65H76.4V280H0.800002V0.549977H92.15C124.25 0.549977 148.1 7.89998 163.7 22.6C179.3 37.3 187.1 61.45 187.1 95.05C187.1 128.65 179.75 152.65 165.05 167.05C150.35 181.45 127.7 188.65 97.1 188.65ZM105.65 127.9C108.35 122.8 109.7 113.65 109.7 100.45C109.7 87.25 108.2 77.95 105.2 72.55C102.2 67.15 96.2 64.45 87.2 64.45H76.4V135.55H89C97.4 135.55 102.95 133 105.65 127.9ZM360.74 280H209.54V0.549977H365.24L360.74 69.4H286.49V111.25H350.84V170.65H286.49V217H365.24L360.74 280ZM592.174 280H517.024L508.474 235.9H455.374L446.824 280H375.274L426.574 0.549977H540.874L592.174 280ZM499.924 183.25L484.174 83.35H481.024L465.274 183.25H499.924ZM813.595 280H728.545L694.795 174.7H690.295V280H615.595V0.549977H690.295V117.55H694.795L735.295 0.549977H818.095L763.645 145L813.595 280Z" fill="url(#paint0_linear_27_2)"/>
<defs>
<linearGradient id="paint0_linear_27_2" x1="398" y1="-96" x2="398" y2="399" gradientUnits="userSpaceOnUse">
<stop stop-color="white"/>
<stop offset="0.836538" stop-color="#2885FF"/>
</linearGradient>
</defs>
</svg>
